<svg width="338.45252685546876px" height="140.02001342773437px" xmlns="http://www.w3.org/2000/svg" viewBox="80.77373657226562 4.989993286132815 338.45252685546876 140.02001342773437" style="background: none;" preserveAspectRatio="xMidYMid"><defs><filter id="editing-extrusion" x="-100%" y="-100%" width="300%" height="300%"><feFlood result="color1" flood-color="#adadad"></feFlood><feConvolveMatrix order="10,10" divisor="1" kernelMatrix="1 0 0 0 0 0 0 0 0 0 0 1 0 0 0 0 0 0 0 0 0 0 1 0 0 0 0 0 0 0 0 0 0 1 0 0 0 0 0 0 0 0 0 0 1 0 0 0 0 0 0 0 0 0 0 1 0 0 0 0 0 0 0 0 0 0 1 0 0 0 0 0 0 0 0 0 0 1 0 0 0 0 0 0 0 0 0 0 1 0 0 0 0 0 0 0 0 0 0 1" in="SourceAlpha" result="extrude"></feConvolveMatrix><feComposite in="color1" in2="extrude" result="comp-extrude" operator="in"></feComposite><feOffset dx="5" dy="5" in="comp-extrude" result="offset-extrude"></feOffset><feMerge><feMergeNode in="offset-extrude"></feMergeNode><feMergeNode in="SourceGraphic"></feMergeNode></feMerge></filter></defs><g filter="url(#editing-extrusion)"><g transform="translate(131.84000158309937, 105.29500007629395)"><path d="M50.37-43.81L50.37-7.31L50.37-7.31Q50.37-5.81 49.80-4.47L49.80-4.47L49.80-4.47Q49.23-3.14 48.23-2.14L48.23-2.14L48.23-2.14Q47.23-1.14 45.89-0.57L45.89-0.57L45.89-0.57Q44.56 0 43.06 0L43.06 0L32.12 0L32.12 9.48L24.81 9.48L24.81 0L13.87 0L13.87 0Q12.37 0 11.03-0.57L11.03-0.57L11.03-0.57Q9.70-1.14 8.70-2.14L8.70-2.14L8.70-2.14Q7.70-3.14 7.13-4.47L7.13-4.47L7.13-4.47Q6.56-5.81 6.56-7.31L6.56-7.31L6.56-43.81L6.56-43.81Q6.56-45.30 7.13-46.64L7.13-46.64L7.13-46.64Q7.70-47.98 8.70-48.96L8.70-48.96L8.70-48.96Q9.70-49.94 11.03-50.53L11.03-50.53L11.03-50.53Q12.37-51.11 13.87-51.11L13.87-51.11L43.06-51.11L43.06-51.11Q44.56-51.11 45.89-50.53L45.89-50.53L45.89-50.53Q47.23-49.94 48.23-48.96L48.23-48.96L48.23-48.96Q49.23-47.98 49.80-46.64L49.80-46.64L49.80-46.64Q50.37-45.30 50.37-43.81L50.37-43.81ZM24.81-13.22L32.12-13.22L32.12-7.31L43.06-7.31L43.06-43.81L13.87-43.81L13.87-7.31L24.81-7.31L24.81-13.22ZM63.48-7.31L63.48-51.11L70.79-51.11L70.79-7.31L99.98-7.31L99.98-51.11L107.29-51.11L107.29-7.31L107.29-7.31Q107.29-5.81 106.72-4.47L106.72-4.47L106.72-4.47Q106.15-3.14 105.15-2.14L105.15-2.14L105.15-2.14Q104.15-1.14 102.82-0.57L102.82-0.57L102.82-0.57Q101.48 0 99.98 0L99.98 0L70.79 0L70.79 0Q69.29 0 67.96-0.57L67.96-0.57L67.96-0.57Q66.62-1.14 65.62-2.14L65.62-2.14L65.62-2.14Q64.62-3.14 64.05-4.47L64.05-4.47L64.05-4.47Q63.48-5.81 63.48-7.31L63.48-7.31ZM120.41-51.11L127.71-51.11L127.71 0L120.41 0L120.41-51.11ZM139.69-43.81L139.69-51.11L179.83-51.11L179.83-48.90L150.85-7.31L179.83-7.31L179.83 0L138.66 0L138.66-2.17L167.64-43.81L139.69-43.81ZM189.63-43.81L189.63-51.11L229.76-51.11L229.76-48.90L200.79-7.31L229.76-7.31L229.76 0L188.60 0L188.60-2.17L217.57-43.81L189.63-43.81Z" fill="#506874"></path></g></g><style>text {
  font-size: 64px;
  font-family: Arial Black;
  dominant-baseline: central;
  text-anchor: middle;
}</style></svg>